<svg width="24" height="24" viewBox="0 0 24 24" fill="none" xmlns="http://www.w3.org/2000/svg">
<path d="M4.50675 9C4.39395 9.00109 4.28237 8.97672 4.1803 8.92871C4.07822 8.8807 3.9883 8.81029 3.91721 8.72271C3.84612 8.63513 3.7957 8.53265 3.7697 8.42288C3.74371 8.31312 3.7428 8.19891 3.76706 8.08875C4.37643 5.20781 7.83018 3 12.0002 3C16.1702 3 19.6239 5.20781 20.2333 8.08875C20.2576 8.19891 20.2567 8.31312 20.2307 8.42288C20.2047 8.53265 20.1543 8.63513 20.0832 8.72271C20.0121 8.81029 19.9221 8.8807 19.8201 8.92871C19.718 8.97672 19.6064 9.00109 19.4936 9H4.50675Z" stroke="#282828" stroke-width="1.5" stroke-linecap="round" stroke-linejoin="round"/>
<path d="M2.25 16.5L6.375 15L10.125 16.5L13.875 15L17.625 16.5L21.75 15" stroke="#282828" stroke-width="1.5" stroke-linecap="round" stroke-linejoin="round"/>
<path d="M2.25 12H21.75" stroke="#282828" stroke-width="1.5" stroke-linecap="round" stroke-linejoin="round"/>
<path d="M19.5 15.8184V17.25C19.5 18.0456 19.1839 18.8087 18.6213 19.3713C18.0587 19.9339 17.2956 20.25 16.5 20.25H7.5C6.70435 20.25 5.94129 19.9339 5.37868 19.3713C4.81607 18.8087 4.5 18.0456 4.5 17.25V15.6815" stroke="#282828" stroke-width="1.5" stroke-linecap="round" stroke-linejoin="round"/>
</svg>
