<svg width="24" height="24" viewBox="0 0 24 24" fill="none" xmlns="http://www.w3.org/2000/svg">
<path fill-rule="evenodd" clip-rule="evenodd" d="M5 3C3.89543 3 3 3.89543 3 5V19C3 20.1046 3.89543 21 5 21H19C20.1046 21 21 20.1046 21 19V5C21 3.89543 20.1046 3 19 3H5ZM17.8326 9.05905C18.0558 8.81677 18.0558 8.42397 17.8326 8.1817C17.6095 7.93943 17.2477 7.93943 17.0245 8.1817L11.2449 14.4564C10.8729 14.8602 10.2699 14.8602 9.89799 14.4564L7.97549 12.3692C7.75233 12.127 7.39052 12.127 7.16737 12.3692C6.94421 12.6115 6.94421 13.0043 7.16737 13.2466L9.08987 15.3338C9.90811 16.2221 11.2347 16.2221 12.053 15.3338L17.8326 9.05905Z" fill="#282828"/>
</svg>
