<svg width="24" height="24" viewBox="0 0 24 24" fill="none" xmlns="http://www.w3.org/2000/svg">
<path d="M19 5.5C19 5.89782 19.158 6.27936 19.4393 6.56066C19.7206 6.84196 20.1022 7 20.5 7C20.8978 7 21.2794 6.84196 21.5607 6.56066C21.842 6.27936 22 5.89782 22 5.5C22 5.10218 21.842 4.72064 21.5607 4.43934C21.2794 4.15804 20.8978 4 20.5 4C20.1022 4 19.7206 4.15804 19.4393 4.43934C19.158 4.72064 19 5.10218 19 5.5Z" stroke="#282828" stroke-width="1.5" stroke-linecap="round" stroke-linejoin="round"/>
<path d="M18.2831 12.9088L18.6299 13.0736C21.0507 14.3133 21.7198 15.918 21.7198 18.1213V18.6491C21.7198 19.1188 21.5474 19.5693 21.2407 19.9015C20.9339 20.2336 20.5179 20.4202 20.084 20.4202H3.23278C2.6979 20.4202 2.19573 20.1351 1.98963 19.6002C1.53654 18.4153 1.00983 16.0349 2.37893 13.0736C4.35816 8.79448 9.22772 7.85401 12.347 9.62515L12.4943 9.70662" stroke="#282828" stroke-width="1.5" stroke-linecap="round" stroke-linejoin="round"/>
<path d="M17.1661 15.2626C18.684 13.4596 18.7626 10.8614 17.3428 9.46215C15.9229 8.06295 13.543 8.39061 12.0266 10.1936C10.6477 11.8319 10.4563 14.1238 11.495 15.5779C11.5997 15.7278 11.718 15.8666 11.85 15.9941" stroke="#282828" stroke-width="1.5" stroke-linecap="round" stroke-linejoin="round"/>
<path d="M19 7L17 9" stroke="#282828" stroke-width="1.5" stroke-linecap="round" stroke-linejoin="round"/>
</svg>
