<svg width="24" height="24" viewBox="0 0 24 24" fill="none" xmlns="http://www.w3.org/2000/svg">
<path d="M3.06543 7.21124L11.9998 12.1012L20.9342 7.21124" stroke="#282828" stroke-width="1.5" stroke-linecap="round" stroke-linejoin="round"/>
<path d="M12.36 2.34376L20.61 6.86063C20.7278 6.92509 20.8261 7.01999 20.8947 7.13542C20.9633 7.25086 20.9997 7.3826 21 7.51688V16.4831C20.9997 16.6174 20.9633 16.7492 20.8947 16.8646C20.8261 16.98 20.7278 17.0749 20.61 17.1394L12.36 21.6563C12.2496 21.7167 12.1258 21.7483 12 21.7483C11.8742 21.7483 11.7504 21.7167 11.64 21.6563L3.39 17.1394C3.2722 17.0749 3.17386 16.98 3.10526 16.8646C3.03666 16.7492 3.0003 16.6174 3 16.4831V7.51688C3.0003 7.3826 3.03666 7.25086 3.10526 7.13542C3.17386 7.01999 3.2722 6.92509 3.39 6.86063L11.64 2.34376C11.7504 2.28336 11.8742 2.25171 12 2.25171C12.1258 2.25171 12.2496 2.28336 12.36 2.34376Z" stroke="#282828" stroke-width="1.5" stroke-linecap="round" stroke-linejoin="round"/>
<path d="M12 12.1022V21.75" stroke="#282828" stroke-width="1.5" stroke-linecap="round" stroke-linejoin="round"/>
</svg>
