<svg width="24" height="24" viewBox="0 0 24 24" fill="none" xmlns="http://www.w3.org/2000/svg">
<path d="M16 12C16 12.7911 15.7654 13.5645 15.3259 14.2223C14.8864 14.8801 14.2616 15.3928 13.5307 15.6955C12.7998 15.9983 11.9956 16.0775 11.2196 15.9231C10.4437 15.7688 9.73098 15.3878 9.17157 14.8284C8.61217 14.269 8.2312 13.5563 8.07686 12.7804C7.92252 12.0044 8.00173 11.2002 8.30448 10.4693C8.60723 9.73836 9.11992 9.11365 9.77772 8.67412C10.4355 8.2346 11.2089 8 12 8C13.0609 8 14.0783 8.42143 14.8284 9.17157C15.5786 9.92172 16 10.9391 16 12Z" fill="#282828"/>
</svg>
