<svg width="24" height="24" viewBox="0 0 24 24" fill="none" xmlns="http://www.w3.org/2000/svg">
<path d="M3.15012 13.6406C2.75961 11.5328 3.1343 9.35478 4.20675 7.49862C5.27919 5.64246 6.97897 4.23005 9.00012 3.51562V10.2656L3.15012 13.6406Z" stroke="#282828" stroke-width="1.5" stroke-linecap="round" stroke-linejoin="round"/>
<path d="M11.9999 12.0394V3C13.5767 3.00024 15.1258 3.41475 16.492 4.20202C17.8583 4.9893 18.9937 6.12171 19.7846 7.48585C20.5755 8.84999 20.9941 10.398 20.9985 11.9748C21.0029 13.5516 20.593 15.1019 19.8097 16.4705C19.0265 17.839 17.8974 18.9778 16.5356 19.7727C15.1738 20.5676 13.6271 20.9908 12.0503 20.9999C10.4735 21.0089 8.92196 20.6036 7.55111 19.8243C6.18026 19.0451 5.03818 17.9195 4.23926 16.56L11.9999 12.0394Z" stroke="#282828" stroke-width="1.5" stroke-linecap="round" stroke-linejoin="round"/>
</svg>
