<svg width="24" height="24" viewBox="0 0 24 24" fill="none" xmlns="http://www.w3.org/2000/svg">
<g clip-path="url(#clip0_11383_7379)">
<path d="M12 19.3125C16.0386 19.3125 19.3125 16.0386 19.3125 12C19.3125 7.96142 16.0386 4.6875 12 4.6875C7.96142 4.6875 4.6875 7.96142 4.6875 12C4.6875 16.0386 7.96142 19.3125 12 19.3125Z" stroke="#282828" stroke-width="1.5" stroke-linecap="round" stroke-linejoin="round"/>
<path d="M8.4375 2.625C8.4375 2.00368 8.94118 1.5 9.5625 1.5H14.3438C14.9651 1.5 15.4688 2.00368 15.4688 2.625V5.56097C14.4366 5.00377 13.2552 4.6875 12 4.6875C10.7066 4.6875 9.49162 5.0233 8.4375 5.61247V2.625Z" stroke="#282828" stroke-width="1.5" stroke-linecap="round" stroke-linejoin="round"/>
<path d="M5.61247 8.4375H2.625C2.00368 8.4375 1.5 8.94118 1.5 9.5625V14.3437C1.5 14.9651 2.00368 15.4687 2.625 15.4687H5.56097C5.00377 14.4366 4.6875 13.2552 4.6875 12C4.6875 10.7066 5.0233 9.49162 5.61247 8.4375Z" stroke="#282828" stroke-width="1.5" stroke-linecap="round" stroke-linejoin="round"/>
<path d="M8.4375 18.3875V21.375C8.4375 21.9963 8.94118 22.5 9.5625 22.5H14.3438C14.9651 22.5 15.4688 21.9963 15.4688 21.375V18.439C14.4366 18.9962 13.2552 19.3125 12 19.3125C10.7066 19.3125 9.49162 18.9767 8.4375 18.3875Z" stroke="#282828" stroke-width="1.5" stroke-linecap="round" stroke-linejoin="round"/>
<path d="M18.439 15.4688H21.375C21.9963 15.4688 22.5 14.9651 22.5 14.3438V9.5625C22.5 8.94118 21.9963 8.4375 21.375 8.4375H18.3875C18.9767 9.49162 19.3125 10.7066 19.3125 12C19.3125 13.2552 18.9962 14.4366 18.439 15.4688Z" stroke="#282828" stroke-width="1.5" stroke-linecap="round" stroke-linejoin="round"/>
</g>
<defs>
<clipPath id="clip0_11383_7379">
<rect width="24" height="24" fill="white"/>
</clipPath>
</defs>
</svg>
