<svg width="24" height="24" viewBox="0 0 24 24" fill="none" xmlns="http://www.w3.org/2000/svg">
<path d="M9.75 11.9006C9.15044 10.8156 8.90167 9.57152 9.0379 8.33938C9.17412 7.10724 9.68865 5.94754 10.5107 5.0197C11.3328 4.09187 12.4221 3.44144 13.6289 3.15784C14.8357 2.87424 16.1007 2.97139 17.25 3.43594L13.5 7.5L14.0306 9.96938L16.5 10.5L20.5641 6.75C21.0286 7.89932 21.1258 9.16431 20.8422 10.3711C20.5586 11.5778 19.9081 12.6672 18.9803 13.4893C18.0525 14.3113 16.8928 14.8259 15.6606 14.9621C14.4285 15.0983 13.1844 14.8496 12.0994 14.25L6.84375 20.3438C6.42106 20.7664 5.84777 21.0039 5.25 21.0039C4.65222 21.0039 4.07894 20.7664 3.65625 20.3438C3.23356 19.9211 2.99609 19.3478 2.99609 18.75C2.99609 18.1522 3.23356 17.5789 3.65625 17.1563L9.75 11.9006Z" stroke="#282828" stroke-width="1.5" stroke-linecap="round" stroke-linejoin="round"/>
</svg>
